HIERARCHY
ROOT root
{
	OFFSET	0	13.1	24.9
	CHANNELS 6  Xposition Yposition Zposition Xrotation Yrotation Zrotation
	JOINT spine_1
	{
		OFFSET	0	9.99999	0
		CHANNELS 3  Xrotation Yrotation Zrotation
		JOINT spine_2
		{
			OFFSET	0	112	-10
			CHANNELS 3  Xrotation Yrotation Zrotation
			JOINT spine_3
			{
				OFFSET	0	206.5	19.3
				CHANNELS 3  Xrotation Yrotation Zrotation
				JOINT spine_4
				{
					OFFSET	0	110.4	14.6
					CHANNELS 3  Xrotation Yrotation Zrotation
					JOINT neck_1
					{
						OFFSET	0	71.8	-50.3
						CHANNELS 3  Xrotation Yrotation Zrotation
						JOINT neck_2
						{
							OFFSET	0	86.2	-25.8
							CHANNELS 3  Xrotation Yrotation Zrotation
							JOINT head_ee
							{
								OFFSET	0	179.8	-8.7
								CHANNELS 3  Xrotation Yrotation Zrotation
								End Site
								{
									OFFSET	1	0	0
								}
							}
						}
					}
					JOINT left_clavicle
					{
						OFFSET	-43.2	22.4	-70.8
						CHANNELS 3  Xrotation Yrotation Zrotation
						JOINT left_shoulder
						{
							OFFSET	-93.9	-5.79999	48.7
							CHANNELS 3  Xrotation Yrotation Zrotation
							JOINT left_elbow
							{
								OFFSET	-291.4	-30.8	15.2
								CHANNELS 3  Xrotation Yrotation Zrotation
								JOINT left_lowarm_twist
								{
									OFFSET	-110.7	-3.89999	13.6
									CHANNELS 3  Xrotation Yrotation Zrotation
									JOINT left_hand
									{
										OFFSET	-110.7	-3.89999	13.6
										CHANNELS 3  Xrotation Yrotation Zrotation
										JOINT left_ee
										{
											OFFSET	-80.8	-5.10001	12.1
											CHANNELS 3  Xrotation Yrotation Zrotation
											End Site
											{
												OFFSET	1	0	0
											}
										}
									}
								}
							}
						}
					}
					JOINT right_clavicle
					{
						OFFSET	43.2	22.4	-70.8
						CHANNELS 3  Xrotation Yrotation Zrotation
						JOINT right_shoulder
						{
							OFFSET	93.9	-5.79999	48.7
							CHANNELS 3  Xrotation Yrotation Zrotation
							JOINT right_elbow
							{
								OFFSET	291.4	-30.8	15.2
								CHANNELS 3  Xrotation Yrotation Zrotation
								JOINT right_lowarm_twist
								{
									OFFSET	110.7	-3.89999	13.6
									CHANNELS 3  Xrotation Yrotation Zrotation
									JOINT right_hand
									{
										OFFSET	110.7	-3.89999	13.6
										CHANNELS 3  Xrotation Yrotation Zrotation
										JOINT right_ee
										{
											OFFSET	80.8	-5.10001	12.1
											CHANNELS 3  Xrotation Yrotation Zrotation
											End Site
											{
												OFFSET	1	0	0
											}
										}
									}
								}
							}
						}
					}
				}
			}
		}
	}
	JOINT left_hip
	{
		OFFSET	-82.8	-127.5	0.300001
		CHANNELS 3  Xrotation Yrotation Zrotation
		JOINT left_knee
		{
			OFFSET	-28.2	-396.7	2.2
			CHANNELS 3  Xrotation Yrotation Zrotation
			JOINT left_ankle
			{
				OFFSET	-11.7	-411.3	35.4
				CHANNELS 3  Xrotation Yrotation Zrotation
				JOINT left_toes
				{
					OFFSET	0	-60	-88.6
					CHANNELS 3  Xrotation Yrotation Zrotation
					JOINT left_foot_ee
					{
						OFFSET	-22.5	-16.5	-42.2
						CHANNELS 3  Xrotation Yrotation Zrotation
						End Site
						{
							OFFSET	1	0	0
						}
					}
				}
			}
		}
	}
	JOINT right_hip
	{
		OFFSET	82.8	-127.5	0.300001
		CHANNELS 3  Xrotation Yrotation Zrotation
		JOINT right_knee
		{
			OFFSET	28.2	-396.7	2.2
			CHANNELS 3  Xrotation Yrotation Zrotation
			JOINT right_ankle
			{
				OFFSET	11.7	-411.3	35.4
				CHANNELS 3  Xrotation Yrotation Zrotation
				JOINT right_toes
				{
					OFFSET	0	-60	-88.6
					CHANNELS 3  Xrotation Yrotation Zrotation
					JOINT right_foot_ee
					{
						OFFSET	22.5	-16.5	-42.2
						CHANNELS 3  Xrotation Yrotation Zrotation
						End Site
						{
							OFFSET	1	0	0
						}
					}
				}
			}
		}
	}
}
MOTION
Frames: 5
Frame Time: 0.02
3475.296443 724.215 -1542.81760642 -2.69921851001 56.600357688 1.4451192347 -0.131596 0.728351 0.729184 -0.131558 0.680476 0.774051 -0.122061 0.500741 0.900808 -0.122627 0.636718 0.810427 -25.107 20.0084 4.73331 -28.279 36.4803 15.8861 -0.0 0.0 -0.0 3.49443 22.8077 7.51086 -19.9257 -6.68551 59.7876 1.83783 -42.3108 0.711253 -45.5271 -3.55721 4.42877 -0.729811 -1.73888 -5.63681 -0.0 0.0 -0.0 13.8498 25.5143 -27.7101 -2.74243 14.9477 -63.6827 0.212122 5.99871 -0.0111144 69.7841 2.718 7.93243 -1.12814 -21.5551 -2.02785 0.0 0.0 0.0 17.5642 26.7771 -19.3722 -63.5648 -2.59697 8.9061 39.798 30.0737 -5.33955 -17.42 0.0 0.0 -0.0 0.0 -0.0 3.35839 2.74473 3.1483 -15.8433 -0.321977 -2.40227 36.8227 31.7048 5.71711 -31.9431 0.0 0.0 0.0 0.0 0.0 
3469.43343107 725.999 -1546.70391225 -3.71796353823 59.1386301771 2.08315437478 0.032009 0.625445 0.775178 0.0321593 0.574853 0.813404 0.0406291 0.391762 0.915748 0.0398533 0.531466 0.842392 -25.165 19.8029 4.46122 -28.2982 36.1995 15.5235 -0.0 0.0 -0.0 3.39265 22.2464 7.36125 -20.6661 -5.98551 59.7996 1.68534 -39.8541 0.611021 -46.8476 -3.70705 4.50796 -0.115597 -2.62874 -1.88806 -0.0 0.0 -0.0 13.9755 25.7372 -27.9778 -1.52881 15.5285 -64.5292 0.229677 6.49108 -0.0130241 70.0166 2.74209 7.95002 -0.92549 -20.4134 -2.72769 0.0 0.0 0.0 21.1378 28.559 -20.0482 -55.4839 -1.73256 8.00943 29.9522 26.6211 -4.14321 -20.0472 0.0 0.0 -0.0 0.0 -0.0 3.67505 2.93468 2.50389 -15.4409 -0.322071 -2.34053 36.9174 31.6966 5.72665 -31.3814 0.0 0.0 0.0 0.0 0.0 
3464.00214058 728.553 -1547.48274787 -5.62590119268 63.1043428964 3.56693062022 0.179751 0.556889 0.90419 0.180068 0.498227 0.937791 0.188583 0.293415 1.02058 0.187413 0.450906 0.961437 -25.2657 19.4964 4.10044 -28.3379 35.7624 15.0266 -0.0 0.0 -0.0 3.55011 21.8752 7.58166 -21.7546 -5.08286 60.5765 1.48791 -36.3903 0.489084 -48.7161 -3.92209 4.61408 0.759531 -3.85469 3.4821 -0.0 0.0 -0.0 14.1887 26.1276 -28.4298 0.57866 16.3826 -66.6035 0.257093 7.25808 -0.0163058 70.3794 2.77983 7.97728 -0.640561 -18.7962 -3.74785 0.0 0.0 0.0 27.3958 30.2594 -22.4099 -43.5123 -0.705206 6.48284 16.0747 21.1309 -2.29778 -23.7987 0.0 0.0 -0.0 0.0 -0.0 3.50316 3.12545 2.5835 -15.0432 -0.321738 -2.27952 37.0837 31.7279 5.74675 -30.5811 0.0 0.0 0.0 0.0 0.0 
3462.69501936 728.553 -1545.45902304 -5.83611999511 64.1430292198 3.8015674832 0.179751 0.556889 0.90419 0.180068 0.498227 0.937791 0.188583 0.293415 1.02058 0.187413 0.450906 0.961437 -25.2657 19.4964 4.10044 -28.3379 35.7624 15.0266 -0.0 0.0 -0.0 3.55011 21.8752 7.58166 -21.7546 -5.08286 60.5765 1.48791 -36.3903 0.489084 -48.7161 -3.92209 4.61408 0.759531 -3.85469 3.4821 -0.0 0.0 -0.0 14.1887 26.1276 -28.4298 0.57866 16.3826 -66.6035 0.257093 7.25808 -0.0163058 70.3794 2.77983 7.97728 -0.640561 -18.7962 -3.74785 0.0 0.0 0.0 27.3958 30.2594 -22.4099 -43.5123 -0.705206 6.48284 16.0747 21.1309 -2.29778 -23.7987 0.0 0.0 -0.0 0.0 -0.0 3.50316 3.12545 2.5835 -15.0432 -0.321738 -2.27952 37.0837 31.7279 5.74675 -30.5811 0.0 0.0 0.0 0.0 0.0 
3462.75082012 730.777 -1542.1830523 -10.4142116475 68.6353288948 8.5585409832 0.475717 0.410786 0.942897 0.476143 0.349957 0.967123 0.482345 0.147483 1.01786 0.48103 0.306376 0.981798 -25.4191 18.78 5.08137 -28.1288 34.0111 15.4104 -0.0 0.0 -0.0 3.46691 21.218 7.45463 -21.9372 -3.50577 60.207 1.28338 -32.4447 0.373414 -50.7719 -4.16252 4.72267 1.46986 -4.61685 7.97219 -0.0 0.0 -0.0 14.4445 26.669 -28.9612 2.60506 17.0487 -65.738 0.331429 9.32384 -0.0270267 70.9266 2.83708 8.01793 -0.394844 -18.1084 -4.9503 0.0 0.0 0.0 32.9792 32.8616 -24.9441 -35.4506 -0.202985 5.35096 5.37525 12.1906 -0.777365 -25.2414 0.0 0.0 -0.0 0.0 -0.0 2.94373 2.21874 2.86222 -14.2527 -0.31982 -2.15825 37.6197 31.8551 5.81305 -29.4191 0.0 0.0 0.0 0.0 0.0 
